<?xml version="1.0" standalone="no"?>
<svg
  width="600"
  height="600"
  viewBox="0 0 600 600"
  xmlns="http://www.w3.org/2000/svg"
>
  <g transform="translate(300,300)">
    <path d="M122.1,-135.2C141.8,-129,130,-74.9,125.9,-32C121.8,10.9,125.4,42.7,116.4,75.6C107.5,108.6,85.9,142.6,53.6,159.8C21.3,177,-21.7,177.3,-43.2,154.1C-64.7,130.9,-64.8,84.2,-92.2,47.9C-119.5,11.6,-174,-14.4,-170.2,-29C-166.5,-43.7,-104.4,-47.1,-66.4,-50.1C-28.3,-53,-14.1,-55.5,18.5,-77.6C51.2,-99.7,102.4,-141.4,122.1,-135.2Z" fill="#bae8e8" />
  </g>
</svg>
  